<svg width="90" height="65" viewBox="0 0 90 65" fill="none" xmlns="http://www.w3.org/2000/svg">
<g filter="url(#filter0_d)">
<path d="M42.0833 21.9656C42.287 22.0199 42.4709 22.1275 42.6144 22.2762C42.7578 22.425 42.8552 22.609 42.8955 22.8078C42.9359 23.0065 42.9177 23.212 42.8429 23.4014C42.7681 23.5907 42.6397 23.7564 42.4721 23.8798L14.1326 44.7448C13.9788 44.8581 13.7972 44.9319 13.6051 44.9591C13.4131 44.9863 13.217 44.9661 13.0354 44.9003C12.8538 44.8346 12.6928 44.7255 12.5676 44.5834C12.4425 44.4413 12.3573 44.271 12.3203 44.0885L6.21714 14.0385C6.18007 13.8561 6.19233 13.6676 6.25276 13.491C6.31319 13.3144 6.41977 13.1555 6.5624 13.0294C6.70502 12.9034 6.87895 12.8143 7.06766 12.7707C7.25637 12.7271 7.4536 12.7303 7.64062 12.7802L42.0833 21.9656Z" fill="#2F80ED"/>
</g>
<g filter="url(#filter1_d)">
<path d="M60.5339 4.35647L47.2527 23.1664C46.7237 23.9155 46.93 24.9323 47.7135 25.4374L67.3847 38.1199C68.1682 38.625 69.2321 38.4271 69.7611 37.678L83.0423 18.8681C83.5712 18.1189 83.3649 17.1021 82.5815 16.597L62.9102 3.91458C62.1268 3.40947 61.0628 3.60731 60.5339 4.35647Z" fill="#EB5757"/>
</g>
<g filter="url(#filter2_d)">
<path d="M43.4052 56C51.503 56 58.0676 49.9598 58.0676 42.5087C58.0676 35.0576 51.503 29.0173 43.4052 29.0173C35.3073 29.0173 28.7427 35.0576 28.7427 42.5087C28.7427 49.9598 35.3073 56 43.4052 56Z" fill="#219653"/>
</g>
<defs>
<filter id="filter0_d" x="0.196167" y="9.74023" width="48.7203" height="44.2306" filterUnits="userSpaceOnUse" color-interpolation-filters="sRGB">
<feFlood flood-opacity="0" result="BackgroundImageFix"/>
<feColorMatrix in="SourceAlpha" type="matrix" values="0 0 0 0 0 0 0 0 0 0 0 0 0 0 0 0 0 0 127 0"/>
<feOffset dy="3"/>
<feGaussianBlur stdDeviation="3"/>
<feColorMatrix type="matrix" values="0 0 0 0 0 0 0 0 0 0 0 0 0 0 0 0 0 0 0.161 0"/>
<feBlend mode="normal" in2="BackgroundImageFix" result="effect1_dropShadow"/>
<feBlend mode="normal" in="SourceGraphic" in2="effect1_dropShadow" result="shape"/>
</filter>
<filter id="filter1_d" x="40.9595" y="0.634888" width="48.376" height="46.7647" filterUnits="userSpaceOnUse" color-interpolation-filters="sRGB">
<feFlood flood-opacity="0" result="BackgroundImageFix"/>
<feColorMatrix in="SourceAlpha" type="matrix" values="0 0 0 0 0 0 0 0 0 0 0 0 0 0 0 0 0 0 127 0"/>
<feOffset dy="3"/>
<feGaussianBlur stdDeviation="3"/>
<feColorMatrix type="matrix" values="0 0 0 0 0 0 0 0 0 0 0 0 0 0 0 0 0 0 0.161 0"/>
<feBlend mode="normal" in2="BackgroundImageFix" result="effect1_dropShadow"/>
<feBlend mode="normal" in="SourceGraphic" in2="effect1_dropShadow" result="shape"/>
</filter>
<filter id="filter2_d" x="22.7427" y="26.0173" width="41.3249" height="38.9827" filterUnits="userSpaceOnUse" color-interpolation-filters="sRGB">
<feFlood flood-opacity="0" result="BackgroundImageFix"/>
<feColorMatrix in="SourceAlpha" type="matrix" values="0 0 0 0 0 0 0 0 0 0 0 0 0 0 0 0 0 0 127 0"/>
<feOffset dy="3"/>
<feGaussianBlur stdDeviation="3"/>
<feColorMatrix type="matrix" values="0 0 0 0 0 0 0 0 0 0 0 0 0 0 0 0 0 0 0.161 0"/>
<feBlend mode="normal" in2="BackgroundImageFix" result="effect1_dropShadow"/>
<feBlend mode="normal" in="SourceGraphic" in2="effect1_dropShadow" result="shape"/>
</filter>
</defs>
</svg>
